:SAMPLES-PER-SECOND 30
:FULLY-SPECIFIED
:DEGREES
47
root  11.6481 34.7273 -7.04586 7.48556 67.8802 4.92444
RightUpLeg  -40.375 18.2034 -1.88544
RightLeg  72.804 9.45656 -4.64133
RightFoot  -14.7373 -0.0993677 -7.29003
RightToes  -1.16416e-010 -3.18055e-015 8.94531e-016
Spine  16.5173 -4.9109 -9.10527
Spine1  7.1156 -9.26801 11.6495
HEad  -12.6885 23.79 -12.1649
LeftShoulder1  0 -2.69403e-036 -1.28585e-037
LeftArm  -8.32877 -25.9743 -61.7293
LeftForeArm  19.4543 -1.53329 -4.08237
LeftHand  0.55912 2.61995 -4.72493
RightShoulder  -2.48481e-017 0 -8.08114e-019
RightArm  17.7793 -26.231 86.6953
RightForeArm  -52.0124 30.1302 -26.6426
RightHand  1.20022 -11.4653 -1.68472
LeftUpLeg  -34.0881 2.7615 -7.75368
LeftLeg  52.3899 -6.32345 7.51771
LeftFoot  -21.7877 0.212685 3.71567
LeftToes  4.03816e-010 4.04885e-011 2.79281e-011
48
root  13.7162 35.3791 -6.991 4.60667 72.4996 1.89862
RightUpLeg  -43.7241 18.7764 -1.71827
RightLeg  58.8059 8.70945 -3.11214
RightFoot  -12.8265 0.0446539 -8.31751
RightToes  -1.16416e-010 -3.18055e-015 8.94531e-016
Spine  17.6594 -6.75207 -6.19727
Spine1  5.44629 -10.5709 11.7939
HEad  -10.6904 23.1984 -11.2685
LeftShoulder1  0 -2.69403e-036 -1.28585e-037
LeftArm  4.23883 -19.047 -73.3607
LeftForeArm  11.0847 -5.52969 -6.00767
LeftHand  0.577204 3.35847 -3.25862
RightShoulder  -2.48481e-017 0 -8.08114e-019
RightArm  12.7933 -20.6912 85.8123
RightForeArm  -53.3786 36.3354 -31.0843
RightHand  1.23932 -11.8507 -1.5744
LeftUpLeg  -28.841 1.9381 -7.09838
LeftLeg  49.8716 -7.7709 4.75709
LeftFoot  -23.6299 0.353987 4.76005
LeftToes  4.03816e-010 4.04885e-011 2.79281e-011
49
root  15.9315 36.0149 -6.788 0.964112 75.6274 -1.79043
RightUpLeg  -44.1895 19.8634 -2.4921
RightLeg  41.5553 10.6896 0.490425
RightFoot  -6.33774 0.372234 -6.01308
RightToes  -1.16416e-010 -3.18055e-015 8.94531e-016
Spine  17.5146 -8.09997 -3.49843
Spine1  4.77333 -11.0737 10.2882
HEad  -9.75264 22.2742 -9.64821
LeftShoulder1  0 -2.69403e-036 -1.28585e-037
LeftArm  20.7142 -11.0902 -81.9566
LeftForeArm  -4.59847 -12.8435 -4.09672
LeftHand  0.499125 3.48427 -0.718681
RightShoulder  -2.48481e-017 0 -8.08114e-019
RightArm  11.8792 -19.0149 84.378
RightForeArm  -55.8606 40.2144 -34.4762
RightHand  1.22615 -12 -0.96821
LeftUpLeg  -22.5185 1.08136 -6.18785
LeftLeg  45.7192 -8.61393 2.90597
LeftFoot  -24.2703 0.440692 5.37872
LeftToes  4.03816e-010 4.04885e-011 2.79281e-011
50
root  18.2632 36.6796 -6.48144 -3.0239 77.6012 -6.58362
RightUpLeg  -42.8757 20.7099 -3.54206
RightLeg  21.3457 13.1216 1.92375
RightFoot  2.6274 -0.0581025 0.0928189
RightToes  -1.16416e-010 -3.18055e-015 8.94531e-016
Spine  15.2416 -8.51933 -0.98962
Spine1  5.2647 -11.0128 9.18367
HEad  -9.44474 21.2414 -8.50793
LeftShoulder1  0 -2.69403e-036 -1.28585e-037
LeftArm  29.5369 -2.59253 -88.8054
LeftForeArm  -16.0916 -16.4189 -2.32645
LeftHand  0.516148 3.84187 0.275331
RightShoulder  -2.48481e-017 0 -8.08114e-019
RightArm  12.7362 -20.8847 81.5309
RightForeArm  -56.9204 43.6413 -37.9764
RightHand  1.17084 -11.9823 0.11512
LeftUpLeg  -16.0804 -1.19167 -5.29076
LeftLeg  39.5633 -7.50204 2.95664
LeftFoot  -25.1934 0.47343 5.30898
LeftToes  4.03816e-010 4.04885e-011 2.79281e-011
51
root  20.6549 37.1881 -6.02834 -5.62732 79.936 -10.4074
RightUpLeg  -39.2701 13.2532 1.44227
RightLeg  2.12571 19.5285 -0.224347
RightFoot  8.18765 -1.00783 5.331
RightToes  -1.16416e-010 -3.18055e-015 8.94531e-016
Spine  11.2357 -8.19768 -0.300417
Spine1  6.79774 -10.9671 9.83618
HEad  -9.30851 19.9136 -8.16251
LeftShoulder1  0 -2.69403e-036 -1.28585e-037
LeftArm  31.9096 6.03253 -94.2012
LeftForeArm  -21.3307 -17.4347 -1.74838
LeftHand  0.630644 4.51246 -0.567949
RightShoulder  -2.48481e-017 0 -8.08114e-019
RightArm  12.9244 -25.0528 77.9027
RightForeArm  -58.456 46.5511 -41.3681
RightHand  1.17713 -12.0909 0.214131
LeftUpLeg  -10.2922 -5.52423 -4.94644
LeftLeg  33.5022 -5.13801 3.7217
LeftFoot  -25.3095 0.303182 3.64636
LeftToes  4.03816e-010 4.04885e-011 2.79281e-011
52
root  23.0999 37.4352 -5.45145 -9.15787 82.5525 -14.5154
RightUpLeg  -38.115 9.62192 2.4746
RightLeg  -5.91173 15.2173 0.217878
RightFoot  6.61887 -0.84207 4.85347
RightToes  -1.16416e-010 -3.18055e-015 8.94531e-016
Spine  7.04189 -7.60909 -0.679273
Spine1  9.04828 -10.8077 10.6969
HEad  -9.18412 18.0824 -7.92181
LeftShoulder1  0 -2.69403e-036 -1.28585e-037
LeftArm  38.3543 14.443 -97.3446
LeftForeArm  -28.0012 -19.5793 0.532542
LeftHand  0.729002 4.85051 -2.86345
RightShoulder  -2.48481e-017 0 -8.08114e-019
RightArm  12.3758 -29.7539 75.3502
RightForeArm  -57.8799 47.144 -42.2389
RightHand  1.26976 -12.178 -1.44179
LeftUpLeg  -4.4526 -9.2011 -4.66545
LeftLeg  28.734 -4.044 3.47405
LeftFoot  -23.5304 0.0706422 1.55548
LeftToes  4.03816e-010 4.04885e-011 2.79281e-011
53
root  25.5893 37.4483 -4.82769 -28.918 85.2812 -34.0002
RightUpLeg  -38.1464 8.64 1.79102
RightLeg  -2.91388 6.40625 0.316227
RightFoot  2.63321 -0.146498 0.918629
RightToes  -1.16416e-010 -3.18055e-015 8.94531e-016
Spine  3.86465 -7.28371 -1.00053
Spine1  11.2457 -10.7268 10.6692
HEad  -9.30048 15.9437 -7.36237
LeftShoulder1  0 -2.69403e-036 -1.28585e-037
LeftArm  49.1965 22.3781 -97.093
LeftForeArm  -37.432 -22.2559 4.80312
LeftHand  0.824112 4.81099 -7.08877
RightShoulder  -2.48481e-017 0 -8.08114e-019
RightArm  12.6403 -33.6242 74.8096
RightForeArm  -53.2199 45.3627 -40.3192
RightHand  1.42599 -12.2593 -4.2942
LeftUpLeg  1.57102 -10.4325 -3.69491
LeftLeg  25.3293 -5.64655 1.96333
LeftFoot  -21.0143 -0.048542 0.239244
LeftToes  4.03816e-010 4.04885e-011 2.79281e-011
54
root  28.2199 37.2029 -4.17923 -133.47 89.4939 -137.814
RightUpLeg  -37.3387 7.07871 0.766168
RightLeg  4.43319 -0.370008 -1.18489
RightFoot  2.81594 0.181818 -1.271
RightToes  -1.16416e-010 -3.18055e-015 8.94531e-016
Spine  1.44015 -7.51755 -1.74412
Spine1  12.6927 -10.9091 10.3527
HEad  -9.77385 13.2794 -6.56413
LeftShoulder1  0 -2.69403e-036 -1.28585e-037
LeftArm  57.8648 29.4748 -93.6994
LeftForeArm  -44.4817 -23.8728 8.69978
LeftHand  0.950205 5.22253 -12.3787
RightShoulder  -2.48481e-017 0 -8.08114e-019
RightArm  13.8359 -36.3485 75.5343
RightForeArm  -48.3791 43.0105 -37.9605
RightHand  1.64104 -12.5982 -7.30864
LeftUpLeg  6.88375 -9.49675 -1.57062
LeftLeg  24.1659 -10.4173 -0.598526
LeftFoot  -18.6107 -0.135924 -1.49365
LeftToes  4.03816e-010 4.04885e-011 2.79281e-011
55
root  30.7447 36.8821 -3.57429 -145.558 85.916 -149.341
RightUpLeg  -36.661 4.20316 1.21935
RightLeg  11.9378 -1.69827 -2.38257
RightFoot  6.9283 0.290424 -1.66393
RightToes  -1.16416e-010 -3.18055e-015 8.94531e-016
Spine  -0.369934 -7.27118 -1.02779
Spine1  13.6203 -10.4004 9.56347
HEad  -10.4418 9.50845 -5.56132
LeftShoulder1  0 -2.69403e-036 -1.28585e-037
LeftArm  62.8007 34.927 -88.6133
LeftForeArm  -46.3835 -24.4459 10.8133
LeftHand  1.01099 6.17688 -14.8969
RightShoulder  -2.48481e-017 0 -8.08114e-019
RightArm  14.6146 -37.5154 76.8892
RightForeArm  -46.1014 40.778 -35.7673
RightHand  1.79645 -12.8336 -9.3229
LeftUpLeg  9.54072 -7.59755 2.19152
LeftLeg  26.5137 -16.0257 -3.65545
LeftFoot  -13.0544 -0.0258412 -4.82208
LeftToes  4.03816e-010 4.04885e-011 2.79281e-011
56
root  32.9936 36.6072 -3.07199 -145.059 84.6321 -148.364
RightUpLeg  -37.1379 2.85734 4.15195
RightLeg  19.6005 0.555046 -3.28303
RightFoot  8.81938 0.599142 -3.06907
RightToes  -1.16416e-010 -3.18055e-015 8.94531e-016
Spine  -0.938196 -5.58379 3.13764
Spine1  14.0257 -7.8324 7.12545
HEad  -11.2679 5.19793 -4.36867
LeftShoulder1  0 -2.69403e-036 -1.28585e-037
LeftArm  63.4302 38.1642 -83.6356
LeftForeArm  -42.8555 -24.1149 10.0284
LeftHand  0.996694 6.58694 -12.5048
RightShoulder  -2.48481e-017 0 -8.08114e-019
RightArm  15.5465 -35.3509 78.8564
RightForeArm  -44.5951 37.4671 -32.6916
RightHand  1.7979 -12.6785 -9.85238
LeftUpLeg  9.16056 -6.01129 6.27315
LeftLeg  32.7358 -18.0112 -5.58823
LeftFoot  -1.528 0.840628 -7.91345
LeftToes  4.03816e-010 4.04885e-011 2.79281e-011
57
root  34.9645 36.3034 -2.68818 -116.336 84.0896 -119.169
RightUpLeg  -37.6773 5.74958 7.31463
RightLeg  26.9187 1.19561 -4.67237
RightFoot  6.09474 0.908231 -5.41297
RightToes  -1.16416e-010 -3.18055e-015 8.94531e-016
Spine  -0.0142998 -3.26808 8.90839
Spine1  14.0409 -4.09246 3.78652
HEad  -12.2395 1.97159 -3.18351
LeftShoulder1  0 -2.69403e-036 -1.28585e-037
LeftArm  56.351 39.8558 -80.2449
LeftForeArm  -34.6366 -22.3 5.43115
LeftHand  0.933511 6.23249 -8.05965
RightShoulder  -2.48481e-017 0 -8.08114e-019
RightArm  18.9682 -28.7916 80.9583
RightForeArm  -42.2321 32.9534 -29.0442
RightHand  1.74311 -12.428 -9.7155
LeftUpLeg  6.00167 -5.8845 8.93527
LeftLeg  42.1876 -16.2922 -5.30833
LeftFoot  11.6207 2.09563 -9.24749
LeftToes  4.03816e-010 4.04885e-011 2.79281e-011
58
root  36.7625 36.1951 -2.39374 -97.8863 82.8156 -100.644
RightUpLeg  -36.5947 8.7173 9.97306
RightLeg  31.1185 0.652726 -5.9948
RightFoot  1.68123 0.877127 -6.76615
RightToes  -1.16416e-010 -3.18055e-015 8.94531e-016
Spine  0.840104 -1.61043 13.1234
Spine1  14.3752 -1.39259 1.78647
HEad  -12.9283 0.397789 -2.08598
LeftShoulder1  0 -2.69403e-036 -1.28585e-037
LeftArm  43.9612 41.2401 -78.8818
LeftForeArm  -26.3528 -18.7795 -0.235984
LeftHand  0.884916 5.98757 -5.16558
RightShoulder  -2.48481e-017 0 -8.08114e-019
RightArm  23.4709 -20.0121 82.5719
RightForeArm  -40.0709 29.4216 -26.5502
RightHand  1.72236 -12.2996 -9.7806
LeftUpLeg  0.220828 -7.9967 9.89372
LeftLeg  52.5467 -14.4034 -4.18428
LeftFoot  18.9494 2.77377 -9.36171
LeftToes  4.03816e-010 4.04885e-011 2.79281e-011
59
root  38.6194 36.5907 -2.115 -95.9343 81.8663 -99.0679
RightUpLeg  -33.305 7.91926 12.0986
RightLeg  30.9692 1.11773 -5.63932
RightFoot  -1.87097 0.656647 -6.62578
RightToes  -1.16416e-010 -3.18055e-015 8.94531e-016
Spine  0.3083 -0.573738 14.9719
Spine1  14.9771 -0.128965 1.19009
HEad  -12.8034 -0.595829 -0.878261
LeftShoulder1  0 -2.69403e-036 -1.28585e-037
LeftArm  36.7574 43.042 -79.2936
LeftForeArm  -24.3397 -16.4218 -3.06931
LeftHand  0.879595 6.0715 -4.08622
RightShoulder  -2.48481e-017 0 -8.08114e-019
RightArm  24.2978 -12.3818 83.3134
RightForeArm  -38.7151 28.4698 -25.9652
RightHand  1.70025 -12.1327 -9.96132
LeftUpLeg  -7.0129 -11.6011 9.8431
LeftLeg  60.3545 -13.6278 -3.5733
LeftFoot  18.9428 2.27306 -7.63005
LeftToes  4.03816e-010 4.04885e-011 2.79281e-011
